<?xml version="1.0" encoding="UTF-8" standalone="no"?>
<svg
   xmlns:svg="http://www.w3.org/2000/svg"
   xmlns="http://www.w3.org/2000/svg"
   version="1.1"
   viewBox="0 0 387.21774 107.67431"
   height="107.67431mm"
   width="387.21774mm">
    <path
       id="neuron"
       d="m 7.9,5.9 c 28.2043,-14.97442 108.232598,41.71584 190.311009,29.29316 55.499501,-6.51437 109.865081,-19.9905 169.333331,-34.58482 24.13118,-3.4954 22.48437,13.48289 13.60715,16.44196 -35.49348,12.08651 2.90173,18.08025 3.59077,24.75745 2.10784,21.9748 -43.54049,8.83913 -77.10715,4.15773 -29.9861,-3.27579 -25.95437,4.03175 -17.3869,17.38691 9.60648,16.09051 -27.10622,20.06625 -44.60119,15.875 -46.39723,-7.97533 -114.714904,-25.568 -179.160713,22.67857 -22.58742,16.70356 -42.915987,-7.24254 -19.465773,-25.51339 26.58328,-21.5443 7.922863,-28.8893 -5.480654,-32.69494 -15.29239,-3.23888 -30.592,-5.77276 -40.06548,-18.70982 -2.32885,-3.46479 -2.15647,-14.53135 6.4256,-19.08781 z"
       style="fill:#D0D0D0;stroke:#000000;stroke-width:0.26458332px;stroke-linecap:butt;stroke-linejoin:miter;stroke-opacity:1" />
</svg>
